<svg xmlns="http://www.w3.org/2000/svg" width="1418.906" height="585.545" viewBox="0 0 1418.906 585.545">
  <g id="Gruppe_1334" data-name="Gruppe 1334" transform="translate(-222.765 -447)">
    <g id="undraw_business_decisions_re_84ag" transform="translate(222.765 464)" opacity="0.11">
      <ellipse id="Ellipse_31" data-name="Ellipse 31" cx="7.281" cy="7.281" rx="7.281" ry="7.281" transform="translate(628.199 0)" fill="#e6e6e6"/>
      <ellipse id="Ellipse_32" data-name="Ellipse 32" cx="7.281" cy="7.281" rx="7.281" ry="7.281" transform="translate(591.342 0)" fill="#e6e6e6"/>
      <ellipse id="Ellipse_33" data-name="Ellipse 33" cx="7.281" cy="7.281" rx="7.281" ry="7.281" transform="translate(554.485 0)" fill="#e6e6e6"/>
      <ellipse id="Ellipse_34" data-name="Ellipse 34" cx="7.281" cy="7.281" rx="7.281" ry="7.281" transform="translate(517.628 0)" fill="#e6e6e6"/>
      <ellipse id="Ellipse_35" data-name="Ellipse 35" cx="7.281" cy="7.281" rx="7.281" ry="7.281" transform="translate(480.772 0)" fill="#e6e6e6"/>
      <ellipse id="Ellipse_36" data-name="Ellipse 36" cx="7.281" cy="7.281" rx="7.281" ry="7.281" transform="translate(628.199 37.319)" fill="#e6e6e6"/>
      <ellipse id="Ellipse_37" data-name="Ellipse 37" cx="7.281" cy="7.281" rx="7.281" ry="7.281" transform="translate(591.342 37.319)" fill="#e6e6e6"/>
      <ellipse id="Ellipse_38" data-name="Ellipse 38" cx="7.281" cy="7.281" rx="7.281" ry="7.281" transform="translate(554.485 37.319)" fill="#e6e6e6"/>
      <ellipse id="Ellipse_39" data-name="Ellipse 39" cx="7.281" cy="7.281" rx="7.281" ry="7.281" transform="translate(517.628 37.319)" fill="#1976d2"/>
      <ellipse id="Ellipse_40" data-name="Ellipse 40" cx="7.281" cy="7.281" rx="7.281" ry="7.281" transform="translate(480.772 37.319)" fill="#e6e6e6"/>
      <ellipse id="Ellipse_41" data-name="Ellipse 41" cx="7.281" cy="7.281" rx="7.281" ry="7.281" transform="translate(407.058 37.319)" fill="#e6e6e6"/>
      <ellipse id="Ellipse_42" data-name="Ellipse 42" cx="7.281" cy="7.281" rx="7.281" ry="7.281" transform="translate(628.199 74.639)" fill="#e6e6e6"/>
      <ellipse id="Ellipse_43" data-name="Ellipse 43" cx="7.281" cy="7.281" rx="7.281" ry="7.281" transform="translate(591.342 74.639)" fill="#e6e6e6"/>
      <ellipse id="Ellipse_44" data-name="Ellipse 44" cx="7.281" cy="7.281" rx="7.281" ry="7.281" transform="translate(554.485 74.639)" fill="#e6e6e6"/>
      <ellipse id="Ellipse_45" data-name="Ellipse 45" cx="7.281" cy="7.281" rx="7.281" ry="7.281" transform="translate(517.628 74.639)" fill="#e6e6e6"/>
      <ellipse id="Ellipse_46" data-name="Ellipse 46" cx="7.281" cy="7.281" rx="7.281" ry="7.281" transform="translate(480.772 74.639)" fill="#e6e6e6"/>
      <ellipse id="Ellipse_47" data-name="Ellipse 47" cx="7.281" cy="7.281" rx="7.281" ry="7.281" transform="translate(628.199 111.958)" fill="#e6e6e6"/>
      <ellipse id="Ellipse_48" data-name="Ellipse 48" cx="7.281" cy="7.281" rx="7.281" ry="7.281" transform="translate(591.342 111.958)" fill="#e6e6e6"/>
      <ellipse id="Ellipse_49" data-name="Ellipse 49" cx="7.281" cy="7.281" rx="7.281" ry="7.281" transform="translate(554.485 111.958)" fill="#e6e6e6"/>
      <ellipse id="Ellipse_50" data-name="Ellipse 50" cx="7.281" cy="7.281" rx="7.281" ry="7.281" transform="translate(517.628 111.958)" fill="#e6e6e6"/>
      <ellipse id="Ellipse_51" data-name="Ellipse 51" cx="7.281" cy="7.281" rx="7.281" ry="7.281" transform="translate(480.772 111.958)" fill="#e6e6e6"/>
      <ellipse id="Ellipse_52" data-name="Ellipse 52" cx="7.281" cy="7.281" rx="7.281" ry="7.281" transform="translate(443.915 111.958)" fill="#e6e6e6"/>
      <ellipse id="Ellipse_53" data-name="Ellipse 53" cx="7.281" cy="7.281" rx="7.281" ry="7.281" transform="translate(407.058 111.958)" fill="#e6e6e6"/>
      <ellipse id="Ellipse_54" data-name="Ellipse 54" cx="7.281" cy="7.281" rx="7.281" ry="7.281" transform="translate(370.201 111.958)" fill="#e6e6e6"/>
      <ellipse id="Ellipse_55" data-name="Ellipse 55" cx="7.281" cy="7.281" rx="7.281" ry="7.281" transform="translate(333.344 111.958)" fill="#e6e6e6"/>
      <ellipse id="Ellipse_56" data-name="Ellipse 56" cx="7.281" cy="7.281" rx="7.281" ry="7.281" transform="translate(296.488 111.958)" fill="#e6e6e6"/>
      <ellipse id="Ellipse_57" data-name="Ellipse 57" cx="7.281" cy="7.281" rx="7.281" ry="7.281" transform="translate(480.772 149.278)" fill="#e6e6e6"/>
      <ellipse id="Ellipse_58" data-name="Ellipse 58" cx="7.281" cy="7.281" rx="7.281" ry="7.281" transform="translate(443.915 149.278)" fill="#1976d2"/>
      <ellipse id="Ellipse_59" data-name="Ellipse 59" cx="7.281" cy="7.281" rx="7.281" ry="7.281" transform="translate(407.058 149.278)" fill="#e6e6e6"/>
      <ellipse id="Ellipse_60" data-name="Ellipse 60" cx="7.281" cy="7.281" rx="7.281" ry="7.281" transform="translate(370.201 149.278)" fill="#e6e6e6"/>
      <ellipse id="Ellipse_61" data-name="Ellipse 61" cx="7.281" cy="7.281" rx="7.281" ry="7.281" transform="translate(333.344 149.278)" fill="#e6e6e6"/>
      <ellipse id="Ellipse_62" data-name="Ellipse 62" cx="7.281" cy="7.281" rx="7.281" ry="7.281" transform="translate(296.488 149.278)" fill="#e6e6e6"/>
      <ellipse id="Ellipse_63" data-name="Ellipse 63" cx="7.281" cy="7.281" rx="7.281" ry="7.281" transform="translate(480.772 186.597)" fill="#e6e6e6"/>
      <ellipse id="Ellipse_64" data-name="Ellipse 64" cx="7.281" cy="7.281" rx="7.281" ry="7.281" transform="translate(443.915 186.597)" fill="#e6e6e6"/>
      <ellipse id="Ellipse_65" data-name="Ellipse 65" cx="7.281" cy="7.281" rx="7.281" ry="7.281" transform="translate(407.058 186.597)" fill="#e6e6e6"/>
      <ellipse id="Ellipse_66" data-name="Ellipse 66" cx="7.281" cy="7.281" rx="7.281" ry="7.281" transform="translate(370.201 186.597)" fill="#e6e6e6"/>
      <ellipse id="Ellipse_67" data-name="Ellipse 67" cx="7.281" cy="7.281" rx="7.281" ry="7.281" transform="translate(333.344 186.597)" fill="#1976d2"/>
      <ellipse id="Ellipse_68" data-name="Ellipse 68" cx="7.281" cy="7.281" rx="7.281" ry="7.281" transform="translate(296.488 186.597)" fill="#e6e6e6"/>
      <ellipse id="Ellipse_69" data-name="Ellipse 69" cx="7.281" cy="7.281" rx="7.281" ry="7.281" transform="translate(480.772 223.917)" fill="#e6e6e6"/>
      <ellipse id="Ellipse_70" data-name="Ellipse 70" cx="7.281" cy="7.281" rx="7.281" ry="7.281" transform="translate(443.915 223.917)" fill="#e6e6e6"/>
      <ellipse id="Ellipse_71" data-name="Ellipse 71" cx="7.281" cy="7.281" rx="7.281" ry="7.281" transform="translate(407.058 223.917)" fill="#e6e6e6"/>
      <ellipse id="Ellipse_72" data-name="Ellipse 72" cx="7.281" cy="7.281" rx="7.281" ry="7.281" transform="translate(370.201 223.917)" fill="#e6e6e6"/>
      <ellipse id="Ellipse_73" data-name="Ellipse 73" cx="7.281" cy="7.281" rx="7.281" ry="7.281" transform="translate(333.344 223.917)" fill="#e6e6e6"/>
      <ellipse id="Ellipse_74" data-name="Ellipse 74" cx="7.281" cy="7.281" rx="7.281" ry="7.281" transform="translate(296.488 223.917)" fill="#e6e6e6"/>
      <ellipse id="Ellipse_75" data-name="Ellipse 75" cx="7.281" cy="7.281" rx="7.281" ry="7.281" transform="translate(628.199 261.236)" fill="#e6e6e6"/>
      <ellipse id="Ellipse_76" data-name="Ellipse 76" cx="7.281" cy="7.281" rx="7.281" ry="7.281" transform="translate(591.342 261.236)" fill="#e6e6e6"/>
      <ellipse id="Ellipse_77" data-name="Ellipse 77" cx="7.281" cy="7.281" rx="7.281" ry="7.281" transform="translate(554.485 261.236)" fill="#e6e6e6"/>
      <ellipse id="Ellipse_78" data-name="Ellipse 78" cx="7.281" cy="7.281" rx="7.281" ry="7.281" transform="translate(517.628 261.236)" fill="#e6e6e6"/>
      <ellipse id="Ellipse_79" data-name="Ellipse 79" cx="7.281" cy="7.281" rx="7.281" ry="7.281" transform="translate(480.772 261.236)" fill="#e6e6e6"/>
      <ellipse id="Ellipse_80" data-name="Ellipse 80" cx="7.281" cy="7.281" rx="7.281" ry="7.281" transform="translate(443.915 261.236)" fill="#e6e6e6"/>
      <ellipse id="Ellipse_81" data-name="Ellipse 81" cx="7.281" cy="7.281" rx="7.281" ry="7.281" transform="translate(407.058 261.236)" fill="#e6e6e6"/>
      <ellipse id="Ellipse_82" data-name="Ellipse 82" cx="7.281" cy="7.281" rx="7.281" ry="7.281" transform="translate(370.201 261.236)" fill="#e6e6e6"/>
      <ellipse id="Ellipse_83" data-name="Ellipse 83" cx="7.281" cy="7.281" rx="7.281" ry="7.281" transform="translate(333.344 261.236)" fill="#e6e6e6"/>
      <ellipse id="Ellipse_84" data-name="Ellipse 84" cx="7.281" cy="7.281" rx="7.281" ry="7.281" transform="translate(296.488 261.236)" fill="#e6e6e6"/>
      <ellipse id="Ellipse_85" data-name="Ellipse 85" cx="7.281" cy="7.281" rx="7.281" ry="7.281" transform="translate(628.203 298.554)" fill="#e6e6e6"/>
      <ellipse id="Ellipse_86" data-name="Ellipse 86" cx="7.281" cy="7.281" rx="7.281" ry="7.281" transform="translate(591.342 298.556)" fill="#e6e6e6"/>
      <ellipse id="Ellipse_87" data-name="Ellipse 87" cx="7.281" cy="7.281" rx="7.281" ry="7.281" transform="translate(628.203 335.874)" fill="#e6e6e6"/>
      <ellipse id="Ellipse_88" data-name="Ellipse 88" cx="7.281" cy="7.281" rx="7.281" ry="7.281" transform="translate(591.342 335.875)" fill="#e6e6e6"/>
      <ellipse id="Ellipse_89" data-name="Ellipse 89" cx="7.281" cy="7.281" rx="7.281" ry="7.281" transform="translate(517.628 335.875)" fill="#e6e6e6"/>
      <path id="Pfad_3278" data-name="Pfad 3278" d="M567.637,273.482H856.175a5.349,5.349,0,0,0,5.343-5.343V196.564a5.35,5.35,0,0,0-5.343-5.343H567.637a5.35,5.35,0,0,0-5.343,5.343v71.574A5.349,5.349,0,0,0,567.637,273.482Zm288.537-80.123a3.21,3.21,0,0,1,3.206,3.206v71.574a3.209,3.209,0,0,1-3.206,3.206H567.637a3.21,3.21,0,0,1-3.206-3.206V196.564a3.209,3.209,0,0,1,3.206-3.206Z" transform="translate(-410.106 -187.579)" fill="#e6e6e6"/>
      <ellipse id="Ellipse_90" data-name="Ellipse 90" cx="22.442" cy="22.442" rx="22.442" ry="22.442" transform="translate(386.224 22.33)" fill="#1976d2"/>
      <path id="Pfad_3279" data-name="Pfad 3279" d="M750.419,215.708a3.74,3.74,0,1,1,0,7.481H651.034a3.74,3.74,0,1,1,0-7.481Z" transform="translate(-393.583 -185.898)" fill="#e6e6e6"/>
      <path id="Pfad_3280" data-name="Pfad 3280" d="M827.362,236.708a3.74,3.74,0,0,1,0,7.481H651.034a3.74,3.74,0,1,1,0-7.481Z" transform="translate(-470.526 -184.456)" fill="#e6e6e6"/>
      <path id="Pfad_3281" data-name="Pfad 3281" d="M220.637,409.482H509.175a5.35,5.35,0,0,0,5.343-5.343V332.564a5.349,5.349,0,0,0-5.343-5.343H220.637a5.35,5.35,0,0,0-5.343,5.343v71.574A5.35,5.35,0,0,0,220.637,409.482Zm288.537-80.123a3.21,3.21,0,0,1,3.206,3.206v71.574a3.209,3.209,0,0,1-3.206,3.206H220.637a3.209,3.209,0,0,1-3.206-3.206V332.564a3.209,3.209,0,0,1,3.206-3.206Z" transform="translate(307.717 -178.242)" fill="#e6e6e6"/>
      <ellipse id="Ellipse_91" data-name="Ellipse 91" cx="22.442" cy="22.442" rx="22.442" ry="22.442" transform="translate(757.047 167.667)" fill="#1976d2" opacity="0.24"/>
      <path id="Pfad_3282" data-name="Pfad 3282" d="M407.694,351.708a3.74,3.74,0,0,1,0,7.481H304.034a3.74,3.74,0,1,1,0-7.481Z" transform="translate(319.965 -176.561)" fill="#e6e6e6"/>
      <path id="Pfad_3283" data-name="Pfad 3283" d="M480.362,372.708a3.74,3.74,0,0,1,0,7.481H304.034a3.74,3.74,0,1,1,0-7.481Z" transform="translate(247.297 -175.119)" fill="#e6e6e6"/>
      <path id="Pfad_3284" data-name="Pfad 3284" d="M464.637,556.482H753.175a5.35,5.35,0,0,0,5.343-5.343V479.564a5.349,5.349,0,0,0-5.343-5.343H464.637a5.35,5.35,0,0,0-5.343,5.343v71.574a5.35,5.35,0,0,0,5.343,5.344Zm288.537-80.123a3.21,3.21,0,0,1,3.206,3.206v71.574a3.209,3.209,0,0,1-3.206,3.206H464.637a3.209,3.209,0,0,1-3.206-3.206V479.564a3.209,3.209,0,0,1,3.206-3.206Z" transform="translate(-197.035 -168.15)" fill="#3f3d56"/>
      <ellipse id="Ellipse_92" data-name="Ellipse 92" cx="22.442" cy="22.442" rx="22.442" ry="22.442" transform="translate(496.295 324.759)" fill="#1976d2" opacity="0.36"/>
      <path id="Pfad_3285" data-name="Pfad 3285" d="M643.144,498.708a3.74,3.74,0,0,1,0,7.481h-95.11a3.74,3.74,0,0,1,0-7.481Z" transform="translate(-176.237 -166.469)" fill="#e6e6e6"/>
      <path id="Pfad_3286" data-name="Pfad 3286" d="M724.362,519.708a3.74,3.74,0,0,1,0,7.481H548.034a3.74,3.74,0,1,1,0-7.481Z" transform="translate(-257.455 -165.027)" fill="#e6e6e6"/>
      <path id="Pfad_3287" data-name="Pfad 3287" d="M819.849,544c12.531,37.592,63.793-2.278,63.793-2.278l-13.67-142.395c-20.5-15.948-42.149-2.278-42.149-2.278Z" transform="translate(-707.467 -173.822)" fill="#e6e6e6"/>
      <path id="Pfad_3288" data-name="Pfad 3288" d="M679.2,464.458l-17.467.184,4.363,50.35h13.1Z" transform="translate(-564.125 31.886)" fill="#ffb8b8"/>
      <path id="Pfad_3289" data-name="Pfad 3289" d="M916.145,695.555h-25.8A16.462,16.462,0,0,0,873.9,712v.534h42.245Z" transform="translate(-797.731 -152.955)" fill="#2f2e41"/>
      <path id="Pfad_3290" data-name="Pfad 3290" d="M599.327,464.458h19.336l-6.232,50.534h-13.1Z" transform="translate(-436.902 31.886)" fill="#ffb8b8"/>
      <path id="Pfad_3291" data-name="Pfad 3291" d="M838.554,712.532V712a16.443,16.443,0,0,0-16.442-16.442h-25.8v16.978Z" transform="translate(-637.223 -152.955)" fill="#2f2e41"/>
      <path id="Pfad_3292" data-name="Pfad 3292" d="M839.254,703.218l22.883-133.392,21.2,131.673,21.481,1.193,5.728-176.42-.432-.1c-3.551-.8-87.135-19.153-100.837,7.109l-.07.133,11.436,170.4Z" transform="translate(-723.001 -165.062)" fill="#2f2e41"/>
      <ellipse id="Ellipse_93" data-name="Ellipse 93" cx="26.247" cy="26.247" rx="26.247" ry="26.247" transform="translate(114.257 156.325)" fill="#ffb8b8"/>
      <path id="Pfad_3293" data-name="Pfad 3293" d="M891.484,555.282c3.077-.852,5.294-4.385,6.977-11.12.29-1.161,27.541-117.243,4.5-138.275l-5.312-14.756-7.27,4.846c-2.572.024-28.876.69-31.124,17.55-2.2,16.5-8.192,127.077-2.17,133.955a1.3,1.3,0,0,0,.991.5c6.1,0,7.955-6.771,8.391-8.93,1.451.6,5.773,2.809,12.876,9.912,4.4,4.4,7.849,6.508,10.7,6.508a5.383,5.383,0,0,0,1.446-.193Z" transform="translate(-773.03 -173.854)" fill="#2f2e41"/>
      <path id="Pfad_3294" data-name="Pfad 3294" d="M830.158,548.968c7.1-7.1,11.427-9.313,12.876-9.912.435,2.158,2.288,8.93,8.391,8.93a1.3,1.3,0,0,0,.991-.5c6.021-6.877.031-117.45-2.17-133.955C848,396.669,821.694,396,819.122,395.979l-7.27-4.847-5.312,14.756c-23.044,21.03,4.206,137.113,4.5,138.275,1.684,6.734,3.9,10.268,6.977,11.12a5.38,5.38,0,0,0,1.446.194C822.308,555.476,825.759,553.367,830.158,548.968Z" transform="translate(-654.744 -173.854)" fill="#2f2e41"/>
      <path id="Pfad_3295" data-name="Pfad 3295" d="M833.077,376.345a26.935,26.935,0,0,1,13.046-48.666c2.416-.242,5.019-.206,7.022-1.578,1.78-1.219,2.738-3.333,4.374-4.74a9.542,9.542,0,0,1,7.4-1.866,26.78,26.78,0,0,1,7.44,2.445c5.82,2.595,12.007,5.788,14.655,11.584,2.294,5.02,1.281,11.211-1.966,15.674a21.811,21.811,0,0,1-13.91,8.213,34.768,34.768,0,0,1-16.334-1.471c-3.464-1.09-6.884-2.575-10.513-2.7a14.287,14.287,0,0,0-10.842,24.113" transform="translate(-714.243 -178.781)" fill="#2f2e41"/>
      <path id="Pfad_3296" data-name="Pfad 3296" d="M755.163,521.908A11.542,11.542,0,0,1,743.891,510.1l-15.307-25.825,11.827-10.842,16.124,25.445a11.543,11.543,0,0,1-1.371,23.029Z" transform="translate(-493.268 -168.204)" fill="#ffb8b8"/>
      <path id="Pfad_3297" data-name="Pfad 3297" d="M894.349,548.415a11.542,11.542,0,0,1-3.366-15.973l.586-30.015,15.763-2.99.309,30.122a11.543,11.543,0,0,1-13.292,18.856Z" transform="translate(-810.035 -166.419)" fill="#ffb8b8"/>
      <path id="Pfad_3298" data-name="Pfad 3298" d="M828,485.342l.178-.284-.177-.284c-22.958-36.867-71.15-82.92-71.634-83.381l-.152-.145-5.952-.061-6.434,16.03c2,3.854,55.993,79.2,63.122,84.195a4.919,4.919,0,0,0,3.938.742,10.365,10.365,0,0,0,3.339-1.422C820.8,496.657,827.661,485.876,828,485.342Z" transform="translate(-570.759 -173.164)" fill="#2f2e41"/>
      <path id="Pfad_3299" data-name="Pfad 3299" d="M913.236,526.826a4.884,4.884,0,0,0,2.893-2.655c3.437-8.02-11.295-109.325-11.924-113.634l-.119-.815-4.98,3.156-.049.215c-.147.647-14.654,65.185-10.722,108.069l.028.307.279.129c.6.278,12.683,5.827,20.736,5.827A10.889,10.889,0,0,0,913.236,526.826Z" transform="translate(-812.938 -172.578)" fill="#2f2e41"/>
      <path id="Pfad_3300" data-name="Pfad 3300" d="M717.775,712.324h284.262a1.069,1.069,0,1,0,0-2.137H717.775a1.069,1.069,0,0,0,0,2.137Z" transform="translate(-716.706 -151.95)" fill="#3f3d56"/>
    </g>
    <g id="undraw_design_data_khdb" transform="translate(803 446.986)" opacity="0.14">
      <path id="Pfad_3258" data-name="Pfad 3258" d="M482.7,151.17v107.9H688.457" transform="translate(-78.961 -24.727)" fill="#f2f2f2"/>
      <path id="Pfad_3259" data-name="Pfad 3259" d="M718.4,239.456H481.7V26.17h1.673V237.783H718.4Z" transform="translate(-78.798 -4.279)" fill="#3f3d56"/>
      <path id="Pfad_3260" data-name="Pfad 3260" d="M584.143,344.153l-1.5-.748a69.1,69.1,0,0,1,54.673-37.2c3.955-.348,8.1-.382,12.106-.415,11.074-.092,22.525-.187,30.875-6.958,6.181-5.012,9.169-12.385,12.332-20.19a100,100,0,0,1,5.424-11.869,48.657,48.657,0,0,1,38.576-23.97q.917-.053,1.866-.064a45.85,45.85,0,0,1,4.431-5.091c8.106-8.017,18.485-13.272,28.523-18.353l2.376-1.2c10.622-5.4,21.622-11.466,29.133-20.857a46.126,46.126,0,0,0,7.377-43.083l1.58-.551a47.837,47.837,0,0,1-7.65,44.678c-7.721,9.651-18.9,15.816-29.682,21.3l-2.379,1.206c-9.923,5.024-20.183,10.218-28.1,18.05a44.167,44.167,0,0,0-3.52,3.931c9.453.372,20.45,4.02,26.629,13.472a23.465,23.465,0,0,1,2.745,18.744,18.387,18.387,0,0,1-9.35,12.005c-4.792,2.381-10.456,2.312-15.948-.2a24.2,24.2,0,0,1-13.281-15.411c-2.529-9.776.8-19.45,5.9-26.938q-.274.012-.551.028A46.945,46.945,0,0,0,699.511,267.6a98.734,98.734,0,0,0-5.326,11.671c-3.1,7.658-6.314,15.577-12.83,20.861-8.8,7.14-20.553,7.237-31.915,7.332-3.974.033-8.085.067-11.973.408A67.4,67.4,0,0,0,584.143,344.153Zm155.2-99.747c-5.246,7.271-8.846,16.886-6.345,26.556a22.5,22.5,0,0,0,12.357,14.308c5.024,2.293,10.178,2.371,14.508.219a16.743,16.743,0,0,0,8.481-10.946,22.07,22.07,0,0,0-2.531-17.39C760.712,249.348,750.513,244.5,739.345,244.406Z" transform="translate(-177.825 -108.734)" fill="#3f3d56"/>
      <circle id="Ellipse_22" data-name="Ellipse 22" cx="15.055" cy="15.055" r="15.055" transform="translate(504.107 146.517)" fill="#1976d2"/>
      <path id="Pfad_3261" data-name="Pfad 3261" d="M460.793,586.394H98.651V414.132H460.793Zm-360.469-1.673h358.8V415.8h-358.8Z" transform="translate(-98.651 -151.353)" fill="#3f3d56"/>
      <rect id="Rechteck_326" data-name="Rechteck 326" width="556.217" height="1.673" transform="translate(269.91 564.725)" fill="#3f3d56"/>
      <path id="Pfad_3262" data-name="Pfad 3262" d="M928.5,332.46l-6.878,34.392s-8.844,19.653-4.913,33.41l2.948,5.9,18.67-16.7,6.878-46.184Z" transform="translate(-232.307 -137.992)" fill="#a0616a"/>
      <path id="Pfad_3263" data-name="Pfad 3263" d="M784.417,613.14l-10.809,41.271,12.775,5.9,11.791-9.826,6.879-31.444Z" transform="translate(-126.55 -100.297)" fill="#a0616a"/>
      <path id="Pfad_3264" data-name="Pfad 3264" d="M959.817,592.6l5.4,59.45h27.514L979.47,586.706Z" transform="translate(-157.01 -95.973)" fill="#a0616a"/>
      <path id="Pfad_3265" data-name="Pfad 3265" d="M985.836,424.056l5.567-27.218L926.878,381.8l-13.757,21.618s-23.58,37.34-29.476,151.326-7.861,113-7.861,113l48.149,4.913L948.5,513.476l60.925,145.431,46.187-12.775-57.98-174.91S1001.561,445.674,985.836,424.056Z" transform="translate(-225.777 -146.064)" fill="#2f2e41"/>
      <path id="Pfad_3266" data-name="Pfad 3266" d="M881.364,749.624l-6.879,6.878-3.93-3.93,2.146-14.439-10.99,6.578s-19.653-2.948-17.687,17.688c0,0-2.948,6.879,13.757,14.74s25.549,12.775,25.549,12.775,15.722-.983,15.722-5.9-4.954-38.275-4.954-38.275Z" transform="translate(-220.549 -204.354)" fill="#2f2e41"/>
      <path id="Pfad_3267" data-name="Pfad 3267" d="M1072.858,749.624l-6.878,6.878-3.93-3.93-4.124-14.439-4.72,6.578s-19.653-2.948-17.687,17.688c0,0-2.948,6.879,13.757,14.74s25.549,12.775,25.549,12.775,15.722-.983,15.722-5.9-4.954-38.275-4.954-38.275Z" transform="translate(-251.874 -204.354)" fill="#2f2e41"/>
      <circle id="Ellipse_23" data-name="Ellipse 23" cx="28.497" cy="28.497" r="28.497" transform="translate(714.86 80.482)" fill="#a0616a"/>
      <path id="Pfad_3268" data-name="Pfad 3268" d="M878.167,153.829l1.965,33.41h37.341l-10.809-45.2Z" transform="translate(-143.654 -23.233)" fill="#a0616a"/>
      <path id="Pfad_3269" data-name="Pfad 3269" d="M947.757,279.209l30.462-1.965,32.427,1.965s27.514,14.74,12.775,55.028S997.871,387.3,997.871,387.3l-31.444-13.757H956.6s-2.948-2.948-3.931-2.948-19.653,2.948-19.653,2.948-4.913-20.635,1.965-22.6,10.809-12.774,10.809-12.774Z" transform="translate(-234.862 -128.96)" fill="#d0cde1"/>
      <path id="Pfad_3270" data-name="Pfad 3270" d="M854.181,182.579l-5.9-2.948-20.635,48.15,22.6,14.739Z" transform="translate(-135.39 -29.382)" fill="#d0cde1"/>
      <path id="Pfad_3271" data-name="Pfad 3271" d="M937.956,218.513s-13.757-35.375,13.439-38.76c0,0,34.29-21.064,56.328,14.194l17.392,42.931-5.811-1.155-.737,5.784-7.414,4.548-5.577-5.763.922,8.822-63.883,27.13s24.084-26.671,14.794-58.116l-3.771,7.7Z" transform="translate(-235.378 -111.991)" fill="#2f2e41"/>
      <path id="Pfad_3272" data-name="Pfad 3272" d="M459.786,745.372c-3.573,13.207-15.811,21.387-15.811,21.387s-6.445-13.234-2.872-26.441,15.811-21.387,15.811-21.387S463.358,732.165,459.786,745.372Z" transform="translate(-154.494 -201.213)" fill="#1976d2"/>
      <path id="Pfad_3273" data-name="Pfad 3273" d="M424.58,745.372c3.573,13.207,15.811,21.387,15.811,21.387s6.445-13.234,2.872-26.441-15.811-21.387-15.811-21.387S421.007,732.165,424.58,745.372Z" transform="translate(-151.791 -201.213)" fill="#1976d2"/>
      <path id="Pfad_3274" data-name="Pfad 3274" d="M426.276,745.127c9.8,9.544,11,24.215,11,24.215s-14.7-.8-24.5-10.346-11-24.215-11-24.215S416.472,735.582,426.276,745.127Z" transform="translate(-148.237 -203.805)" fill="#3f3d56"/>
      <path id="Pfad_3275" data-name="Pfad 3275" d="M455.222,745.127c-9.8,9.544-11,24.215-11,24.215s14.7-.8,24.5-10.346,11-24.215,11-24.215S465.026,735.582,455.222,745.127Z" transform="translate(-155.181 -203.805)" fill="#3f3d56"/>
      <path id="Pfad_3276" data-name="Pfad 3276" d="M271.6,170.933a70.9,70.9,0,0,1,51.878-48.388,70.951,70.951,0,1,0-35.9,117.507A70.9,70.9,0,0,1,271.6,170.933Z" transform="translate(-115.332 -99.962)" fill="#1976d2" opacity="0.28"/>
      <path id="Pfad_3277" data-name="Pfad 3277" d="M389.806,131.721a70.6,70.6,0,0,0-36.707-1.266,70.933,70.933,0,0,1-35.9,117.507,70.947,70.947,0,1,0,72.61-116.242Z" transform="translate(-134.401 -104.647)" fill="#3f3d56"/>
      <ellipse id="Ellipse_24" data-name="Ellipse 24" cx="61.435" cy="35.475" rx="61.435" ry="35.475" transform="translate(142.838 131.107) rotate(-73.01)" fill="#d0cde1"/>
      <circle id="Ellipse_25" data-name="Ellipse 25" cx="15.055" cy="15.055" r="15.055" transform="translate(620.368 34.438)" fill="#1976d2"/>
      <circle id="Ellipse_26" data-name="Ellipse 26" cx="15.055" cy="15.055" r="15.055" transform="translate(579.384 96.332)" fill="#1976d2"/>
      <rect id="Rechteck_327" data-name="Rechteck 327" width="275.243" height="121.577" transform="translate(7.275 301.794)" fill="#f2f2f2"/>
      <rect id="Rechteck_328" data-name="Rechteck 328" width="262.069" height="23.253" transform="translate(20.947 293.624)" fill="#1976d2"/>
      <rect id="Rechteck_329" data-name="Rechteck 329" width="228.761" height="6.285" transform="translate(37.601 302.108)" fill="#3f3d56"/>
      <circle id="Ellipse_27" data-name="Ellipse 27" cx="8.798" cy="8.798" r="8.798" transform="translate(142.869 296.138)" fill="#3f3d56"/>
      <rect id="Rechteck_330" data-name="Rechteck 330" width="137.005" height="65.36" transform="translate(83.165 335.102)" fill="#1976d2"/>
      <circle id="Ellipse_28" data-name="Ellipse 28" cx="12.569" cy="12.569" r="12.569" transform="translate(139.098 355.213)" opacity="0.15"/>
      <circle id="Ellipse_29" data-name="Ellipse 29" cx="12.569" cy="12.569" r="12.569" transform="translate(183.09 355.213)" fill="#fff" opacity="0.3"/>
      <circle id="Ellipse_30" data-name="Ellipse 30" cx="12.569" cy="12.569" r="12.569" transform="translate(95.106 355.213)" opacity="0.3"/>
    </g>
  </g>
</svg>
