<svg xmlns="http://www.w3.org/2000/svg" width="856.888" height="1086.953" viewBox="0 0 856.888 1086.953">
  <g id="Gruppe_1339" data-name="Gruppe 1339" transform="translate(-1063.111 0.953)">
    <g id="Gruppe_1338" data-name="Gruppe 1338">
      <g id="Gruppe_1333" data-name="Gruppe 1333">
        <rect id="Rechteck_274" data-name="Rechteck 274" width="95.92" height="63.947" transform="translate(1728.959 -0.953)" fill="#fbfdff"/>
        <rect id="Rechteck_280" data-name="Rechteck 280" width="95.92" height="63.947" transform="translate(1728.959 59.794)" fill="#1976d2"/>
        <rect id="Rechteck_291" data-name="Rechteck 291" width="95.92" height="63.947" transform="translate(1063.111 242.046)" fill="#1976d2" opacity="0.8"/>
        <rect id="Rechteck_292" data-name="Rechteck 292" width="95.92" height="63.947" transform="translate(1158.231 242.046)" fill="#1976d2"/>
        <rect id="Rechteck_293" data-name="Rechteck 293" width="95.92" height="57.554" transform="translate(1253.354 245.242)" fill="#4f96dc"/>
        <rect id="Rechteck_294" data-name="Rechteck 294" width="95.92" height="63.947" transform="translate(1348.476 242.046)" fill="#4f96dc"/>
        <rect id="Rechteck_296" data-name="Rechteck 296" width="95.92" height="63.947" transform="translate(1063.111 302.796)" fill="#fbfdff"/>
        <rect id="Rechteck_297" data-name="Rechteck 297" width="95.92" height="63.947" transform="translate(1158.231 302.796)" fill="#448fda"/>
        <rect id="Rechteck_298" data-name="Rechteck 298" width="95.92" height="63.947" transform="translate(1253.354 302.796)" fill="#fbfdff" opacity="0.8"/>
        <rect id="Rechteck_299" data-name="Rechteck 299" width="95.92" height="63.947" transform="translate(1348.476 302.796)" fill="#fbfdff"/>
        <rect id="Rechteck_300" data-name="Rechteck 300" width="95.92" height="63.947" transform="translate(1063.111 365.618)" fill="#fbfdff"/>
        <rect id="Rechteck_302" data-name="Rechteck 302" width="95.92" height="63.947" transform="translate(1253.354 365.618)" fill="#4f96dc"/>
        <rect id="Rechteck_268" data-name="Rechteck 268" width="95.92" height="63.947" transform="translate(1063.111 -0.953)" fill="#1976d2"/>
        <rect id="Rechteck_269" data-name="Rechteck 269" width="95.92" height="63.947" transform="translate(1158.231 -0.953)" fill="#fbfdff"/>
        <rect id="Rechteck_270" data-name="Rechteck 270" width="95.92" height="63.947" transform="translate(1253.354 -0.953)" fill="#1976d2" opacity="0.8"/>
        <rect id="Rechteck_271" data-name="Rechteck 271" width="95.92" height="63.947" transform="translate(1348.476 -0.953)" fill="#1976d2"/>
        <rect id="Rechteck_272" data-name="Rechteck 272" width="95.92" height="63.947" transform="translate(1443.597 -0.953)" fill="#1976d2" opacity="0.8"/>
        <rect id="Rechteck_273" data-name="Rechteck 273" width="95.92" height="63.947" transform="translate(1538.717 -0.953)" fill="#fbfdff"/>
        <rect id="Rechteck_275" data-name="Rechteck 275" width="95.92" height="63.947" transform="translate(1063.111 59.794)" fill="#1976d2" opacity="0.8"/>
        <rect id="Rechteck_276" data-name="Rechteck 276" width="95.92" height="63.947" transform="translate(1158.231 59.794)" fill="#1976d2"/>
        <rect id="Rechteck_277" data-name="Rechteck 277" width="95.92" height="63.947" transform="translate(1348.476 59.794)" fill="#1976d2" opacity="0.8"/>
        <rect id="Rechteck_278" data-name="Rechteck 278" width="95.92" height="63.947" transform="translate(1443.597 59.794)" fill="#1976d2"/>
        <rect id="Rechteck_279" data-name="Rechteck 279" width="95.92" height="63.947" transform="translate(1538.717 59.794)" fill="#1976d2" opacity="0.8"/>
        <rect id="Rechteck_281" data-name="Rechteck 281" width="95.92" height="63.947" transform="translate(1063.111 120.545)" fill="#fbfdff"/>
        <rect id="Rechteck_282" data-name="Rechteck 282" width="95.92" height="63.947" transform="translate(1158.231 120.545)" fill="#1976d2" opacity="0.8"/>
        <rect id="Rechteck_283" data-name="Rechteck 283" width="95.92" height="63.947" transform="translate(1253.354 120.545)" fill="#fbfdff"/>
        <rect id="Rechteck_284" data-name="Rechteck 284" width="95.92" height="63.947" transform="translate(1348.476 120.545)" fill="#1976d2"/>
        <rect id="Rechteck_285" data-name="Rechteck 285" width="95.92" height="63.947" transform="translate(1443.597 120.545)" fill="#1976d2" opacity="0.8"/>
        <rect id="Rechteck_286" data-name="Rechteck 286" width="95.92" height="63.947" transform="translate(1538.717 120.545)" fill="#fbfdff"/>
        <rect id="Rechteck_287" data-name="Rechteck 287" width="95.92" height="63.947" transform="translate(1633.837 120.545)" fill="#1976d2"/>
        <rect id="Rechteck_288" data-name="Rechteck 288" width="95.92" height="63.947" transform="translate(1063.111 181.295)" fill="#1976d2"/>
        <rect id="Rechteck_289" data-name="Rechteck 289" width="95.92" height="63.947" transform="translate(1158.231 181.295)" fill="#fbfdff"/>
        <rect id="Rechteck_290" data-name="Rechteck 290" width="95.92" height="63.947" transform="translate(1538.717 181.295)" fill="#1976d2" opacity="0.8"/>
        <rect id="Rechteck_303" data-name="Rechteck 303" width="95.92" height="63.947" transform="translate(1253.354 59.794)" fill="#1976d2"/>
        <rect id="Rechteck_304" data-name="Rechteck 304" width="95.92" height="63.947" transform="translate(1633.837 -0.953)" fill="#1976d2"/>
        <rect id="Rechteck_305" data-name="Rechteck 305" width="95.92" height="63.947" transform="translate(1443.597 181.295)" fill="#1976d2"/>
        <rect id="Rechteck_306" data-name="Rechteck 306" width="95.92" height="63.947" transform="translate(1348.476 181.295)" fill="#fbfdff"/>
        <rect id="Rechteck_307" data-name="Rechteck 307" width="95.92" height="63.947" transform="translate(1253.354 181.295)" fill="#1976d2" opacity="0.8"/>
        <rect id="Rechteck_308" data-name="Rechteck 308" width="95.92" height="63.947" transform="translate(1633.837 59.794)" fill="#e6e6e6"/>
        <rect id="Rechteck_309" data-name="Rechteck 309" width="95.92" height="63.947" transform="translate(1824.079 -0.953)" fill="#1976d2" opacity="0.8"/>
        <g id="undraw_junior_soccer_6sop_1_" data-name="undraw_junior_soccer_6sop (1)" transform="translate(1063.195 609.269)">
          <path id="Pfad_3227" data-name="Pfad 3227" d="M584.757,699.768c2.913-3.679,6.754,3.639,10.6.934H574.061C578.4,703.109,581.778,695.836,584.757,699.768Z" transform="translate(-198.087 -228.044)" fill="none"/>
          <path id="Pfad_3228" data-name="Pfad 3228" d="M660.211,700.852H656.54c.789.554,1.58,1.105,2.333,1.7C659.3,701.975,659.761,701.418,660.211,700.852Z" transform="translate(-203.531 -228.194)" fill="none"/>
          <path id="Pfad_3229" data-name="Pfad 3229" d="M554.606,696.125a35.143,35.143,0,0,0-17.086,4.415h34.128A34.986,34.986,0,0,0,554.606,696.125Z" transform="translate(-195.674 -227.882)" fill="#e6e6e6"/>
          <path id="Pfad_3230" data-name="Pfad 3230" d="M624.748,691.4a48.284,48.284,0,0,0-27.889,8.83H652.6a48.27,48.27,0,0,0-27.852-8.83Z" transform="translate(-199.592 -227.57)" fill="#e6e6e6"/>
          <path id="Pfad_3231" data-name="Pfad 3231" d="M1004.074,625.522c-2.494-45.216-38.822-82.082-84-85.172a90.525,90.525,0,0,0-93.569,66.09c-1.1-.039-2.192-.084-3.3-.084a90.523,90.523,0,0,0-86.834,64.99,63.963,63.963,0,0,0-75.9,18.895H942.788c34.685,0,62.768-28.728,61.353-63.384Q1004.112,626.191,1004.074,625.522Z" transform="translate(-203.791 -217.584)" fill="#e6e6e6"/>
          <rect id="Rechteck_262" data-name="Rechteck 262" width="792.954" height="1.868" transform="translate(0 471.724)" fill="#3f3d56"/>
          <path id="Pfad_3232" data-name="Pfad 3232" d="M452.663,374.786s-35.991-11.211-30.466,7.234,35.84,9.128,35.84,9.128Z" transform="translate(-188.023 -206.446)" fill="#fdab27" opacity="0.39"/>
          <path id="Pfad_3233" data-name="Pfad 3233" d="M592.165,300.128s-18.445-25.205-36.365.961c-17.955,26.218-34.648,47.741-34.648,47.741l-44.594,14.54-25.8,2.289,7.107,22.937,75.012-10.882S616.388,328.107,592.165,300.128Z" transform="translate(-189.947 -201.02)" fill="#2f2e41"/>
          <path id="Pfad_3234" data-name="Pfad 3234" d="M512.158,450.352s-28.02,19.614-26.152,37.36,14.01,66.313,14.01,66.313l25.218-3.736s2.8-37.359-6.538-51.369L563.528,473.7Z" transform="translate(-192.268 -211.658)" fill="#fdab27" opacity="0.39"/>
          <path id="Pfad_3235" data-name="Pfad 3235" d="M580.487,499.852s-1.868,34.557,2.8,48.567,9.34,66.313,9.34,66.313H618.78s12.142-45.765-2.8-66.313c0,0-4.67-27.086,8.406-40.161Z" transform="translate(-198.486 -214.925)" fill="#fdab27" opacity="0.39"/>
          <path id="Pfad_3236" data-name="Pfad 3236" d="M569.722,396.824s-60.709,38.294-60.709,50.435l48.567,40.161,16.812-18.68-1.868,28.02,52.3,10.274s18.68-70.983,17.746-73.785-3.736-43.9-3.736-43.9Z" transform="translate(-193.792 -207.631)" fill="#2f2e41"/>
          <path id="Pfad_3237" data-name="Pfad 3237" d="M526.1,552.352l-27.086,5.6,4.812,19.784a70.644,70.644,0,0,1,.792,29.717h0s28.019,7.472,28.019,3.736-6.538-18.68-4.67-28.954S526.1,552.352,526.1,552.352Z" transform="translate(-193.132 -218.391)" fill="#1976d2"/>
          <path id="Pfad_3238" data-name="Pfad 3238" d="M538.035,626.024c-.934-3.736-8.694-20.675-9.017-17.809s-15.267,7.535-20.871,1.932c0,0-7.472-6.538-10.274,0s-8.406,17.746-8.406,17.746-25.218,12.142-21.482,18.68c.756,1.322,2.849,1.88,5.707,1.929a1.53,1.53,0,0,0-.1.542v.662a1.537,1.537,0,0,0,1.537,1.537h.662a1.537,1.537,0,0,0,1.537-1.537v-.662a1.517,1.517,0,0,0-.168-.685c.764-.067,1.556-.155,2.371-.263a1.522,1.522,0,0,0-.335.948v.662a1.537,1.537,0,0,0,1.537,1.537h.662a1.537,1.537,0,0,0,1.537-1.537v-.662a1.53,1.53,0,0,0-.795-1.338c2.15-.359,4.393-.815,6.625-1.321a1.519,1.519,0,0,0-.226.791v.662a1.537,1.537,0,0,0,1.537,1.537h.662a1.537,1.537,0,0,0,1.537-1.537v-.662a1.536,1.536,0,0,0-.914-1.4c1.673-.408,3.313-.833,4.874-1.255a1.519,1.519,0,0,0-.224.789v.662a1.537,1.537,0,0,0,1.537,1.537h.662a1.537,1.537,0,0,0,1.537-1.537v-.662a1.532,1.532,0,0,0-1.081-1.46c5.485-1.545,9.487-2.879,9.487-2.879s4.647-1.691,10.274-3.976v.57a1.537,1.537,0,0,0,1.537,1.537h.662a1.537,1.537,0,0,0,1.537-1.537V636.9a1.527,1.527,0,0,0-.595-1.206c1.13-.475,2.269-.963,3.4-1.46v.526A1.537,1.537,0,0,0,526.5,636.3h.662a1.537,1.537,0,0,0,1.537-1.537V634.1a1.533,1.533,0,0,0-.658-1.258c1.219-.568,2.393-1.136,3.475-1.693,0,.05-.015.1-.015.149v.662a1.537,1.537,0,0,0,1.537,1.537h.662a1.537,1.537,0,0,0,1.537-1.537V631.3a1.538,1.538,0,0,0-1.23-1.506C536.615,628.274,538.261,626.929,538.035,626.024Z" transform="translate(-191.059 -222.014)" fill="#2f2e41"/>
          <path id="Pfad_3239" data-name="Pfad 3239" d="M621.136,618.22l-29.589-1.868s1.793,30.822-1.793,41.1-1.793,14.01-1.793,14.01l26,1.868Z" transform="translate(-198.975 -222.616)" fill="#1976d2"/>
          <path id="Pfad_3240" data-name="Pfad 3240" d="M618.748,689.446c-.134-3.848-4.192-22.033-5.105-19.3s-16.5,4.186-20.815-2.463c0,0-5.944-7.952-10.048-2.142s-11.921,15.6-11.921,15.6-27.195,6.617-24.9,13.79c.463,1.451,2.394,2.433,5.18,3.077a1.53,1.53,0,0,0-.214.508l-.138.647a1.537,1.537,0,0,0,1.183,1.824l.647.138a1.537,1.537,0,0,0,1.824-1.183l.138-.647a1.517,1.517,0,0,0-.021-.7c.761.094,1.554.172,2.374.237a1.523,1.523,0,0,0-.525.857l-.138.647a1.537,1.537,0,0,0,1.183,1.824l.647.138a1.537,1.537,0,0,0,1.824-1.183l.138-.648a1.529,1.529,0,0,0-.5-1.474c2.177.1,4.467.119,6.754.089a1.527,1.527,0,0,0-.386.727l-.138.647a1.537,1.537,0,0,0,1.183,1.824l.647.138a1.538,1.538,0,0,0,1.824-1.183l.138-.647a1.536,1.536,0,0,0-.6-1.562c1.722-.05,3.414-.124,5.029-.211a1.522,1.522,0,0,0-.384.725l-.138.647a1.537,1.537,0,0,0,1.183,1.824l.647.138a1.537,1.537,0,0,0,1.824-1.183l.138-.647a1.532,1.532,0,0,0-.753-1.654c5.687-.368,9.879-.837,9.879-.837s4.9-.685,10.877-1.746l-.119.558a1.537,1.537,0,0,0,1.183,1.824l.647.138a1.537,1.537,0,0,0,1.824-1.183l.138-.647a1.528,1.528,0,0,0-.33-1.3c1.2-.229,2.42-.469,3.626-.719l-.109.514a1.537,1.537,0,0,0,1.183,1.824l.647.138a1.537,1.537,0,0,0,1.824-1.183l.138-.647a1.533,1.533,0,0,0-.381-1.368c1.311-.3,2.577-.612,3.751-.931-.015.048-.035.093-.046.143l-.138.647a1.537,1.537,0,0,0,1.183,1.824l.647.138a1.537,1.537,0,0,0,1.824-1.183l.138-.647a1.537,1.537,0,0,0-.889-1.729C616.89,691.352,618.781,690.379,618.748,689.446Z" transform="translate(-196.222 -225.723)" fill="#2f2e41"/>
          <ellipse id="Ellipse_21" data-name="Ellipse 21" cx="27.086" cy="27.086" rx="27.086" ry="27.086" transform="translate(348.844 13.603)" fill="#fdab27" opacity="0.39"/>
          <path id="Pfad_3241" data-name="Pfad 3241" d="M598.649,235.352s14.944,18.68,22.416,17.746l-32.689,25.218s-3.736-15.878-8.406-17.746S598.649,235.352,598.649,235.352Z" transform="translate(-198.436 -197.465)" fill="#fcddab"/>
          <path id="Pfad_3242" data-name="Pfad 3242" d="M654.821,374.955s0-103.063-17.291-111.94-28.708-13.937-28.708-13.937h0a24.244,24.244,0,0,1-9.322,17.342c-5.729,4.423-11.437,8.091-14.625,8.1l-.1-.437-.389-1.11-9.418,14.653s-8.406,1.868-11.208,7.472c-1.516,3.032,5.632,33.552,1.4,61.176-3.59,23.437-18.718,44.594-19.147,47.166-.725,4.348,17.662-7.044,25.942-12.37.122.137.21.228.21.228s-4.67,1.868,4.67-.934c5.292-1.588,12.681-1.676,18.093-1.454-.006,1.623.032,2.912.12,3.789.934,9.34,47.633,22.416,54.171,19.614S654.821,374.955,654.821,374.955Z" transform="translate(-196.234 -198.371)" fill="#2f2e41"/>
          <path id="Pfad_3243" data-name="Pfad 3243" d="M626.4,421.852s-28.02,25.218-9.34,29.888,26.152-26.152,26.152-26.152Z" transform="translate(-200.501 -209.776)" fill="#fcddab"/>
          <path id="Pfad_3244" data-name="Pfad 3244" d="M592.513,491.319s13.076-12.142,20.548-5.6S625.2,496.923,625.2,496.923,603.721,483.847,592.513,491.319Z" transform="translate(-199.304 -213.864)" fill="#1976d2"/>
          <path id="Pfad_3245" data-name="Pfad 3245" d="M596.15,647.1s7.37-6.843,11.582-3.158,6.844,6.317,6.844,6.317S602.467,642.888,596.15,647.1Z" transform="translate(-199.545 -224.365)" fill="#2f2e41"/>
          <path id="Pfad_3246" data-name="Pfad 3246" d="M507.746,578.767s5.059-8.692,10.161-6.392,8.386,4.052,8.386,4.052S512.565,572.9,507.746,578.767Z" transform="translate(-193.709 -219.687)" fill="#2f2e41"/>
          <path id="Pfad_3247" data-name="Pfad 3247" d="M652.6,277.029c-9.259-18.611-37.429-8.46-32.851,11.816q.1.453.214.916a184.33,184.33,0,0,0,23.349,54.171L633.038,389.7l-11.208,23.35,23.35,5.6L674.134,348.6S666.147,304.262,652.6,277.029Z" transform="translate(-201.069 -199.57)" fill="#2f2e41"/>
          <path id="Pfad_3248" data-name="Pfad 3248" d="M467.746,156.065,450,223.312l14.944-31.756Z" transform="translate(-29.706 -10.303)" opacity="0.2"/>
          <path id="Pfad_3249" data-name="Pfad 3249" d="M588.623,203.9s-14.972-15.762-30.042-5.836-22.219,19.569-20.741,26.284S543.69,240.4,543.69,240.4s-2.718-13.91,9.761-14.939,29.718-9.287,29.718-9.287l11.662,24.9s1.649-5.771,6.219-4.116S602.078,205.75,588.623,203.9Z" transform="translate(-195.683 -194.787)" fill="#2f2e41"/>
          <path id="Pfad_3250" data-name="Pfad 3250" d="M483.572,582.881a42.874,42.874,0,0,1-.589,7.061v.01a42.04,42.04,0,0,1-58.131,31.5h-.009a41.034,41.034,0,0,1-5.016-2.587,42.093,42.093,0,0,1-19.5-27.693,42.551,42.551,0,0,1-.813-8.294c0-1.27.056-2.531.168-3.773V579.1a42.028,42.028,0,0,1,83.881,3.2v.009C483.572,582.508,483.572,582.685,483.572,582.881Z" transform="translate(-186.564 -217.632)" fill="#1976d2"/>
          <path id="Pfad_3251" data-name="Pfad 3251" d="M453.594,568.778H434.771l-9.412-16.3,6.384-11.066.373-.1a43.109,43.109,0,0,1,24.567.687l.338.112,5.986,10.367Zm-17.746-1.868h16.668l8.333-14.43-5.089-8.815a41.429,41.429,0,0,0-22.788-.646l-5.457,9.46Z" transform="translate(-188.27 -217.566)" fill="#fff"/>
          <path id="Pfad_3252" data-name="Pfad 3252" d="M452.594,604.518H433.771l-9.412-16.3,9.412-16.3h18.824l9.412,16.3Zm-17.746-1.868h16.668l8.333-14.434-8.333-14.435H434.849l-8.333,14.434Z" transform="translate(-188.204 -219.682)" fill="#fff"/>
          <path id="Pfad_3253" data-name="Pfad 3253" d="M443.239,630.4a42.57,42.57,0,0,1-17.063-3.533l-.96-.417,9.544-16.542h18.824l9.142,15.836-.908.436a42.559,42.559,0,0,1-18.58,4.22Zm-15.352-4.841a41.14,41.14,0,0,0,32.209-.637l-7.589-13.146H435.84Z" transform="translate(-188.261 -222.19)" fill="#fff"/>
          <path id="Pfad_3254" data-name="Pfad 3254" d="M486.594,586.517H467.771l-9.412-16.3,9.412-16.307h8.571l.276.291a42.758,42.758,0,0,1,11.763,28.95v.271Zm-17.746-1.868h16.668l.993-1.719a40.887,40.887,0,0,0-10.973-27.15h-6.687l-8.334,14.44Z" transform="translate(-190.449 -218.494)" fill="#fff"/>
          <path id="Pfad_3255" data-name="Pfad 3255" d="M467.511,623.061l-9.153-15.842,9.412-16.307h18.823l1.209,2.083-.013.418a43.054,43.054,0,0,1-19.456,29.13Zm-7-15.842,7.635,13.215a41.18,41.18,0,0,0,17.741-27.01l-.374-.644H468.85Z" transform="translate(-190.449 -220.936)" fill="#fff"/>
          <path id="Pfad_3256" data-name="Pfad 3256" d="M420.148,623.464l-.815-.493A43.07,43.07,0,0,1,399.4,594.663l-.069-.346,1.968-3.406h18.824l9.412,16.308ZM401.3,594.639a41.2,41.2,0,0,0,18.189,26.232l7.887-13.652-8.334-14.44H402.375Z" transform="translate(-186.552 -220.936)" fill="#fff"/>
          <path id="Pfad_3257" data-name="Pfad 3257" d="M420.078,584.517H401.255l-2.562-4.428v-.251a42.834,42.834,0,0,1,13.533-27.677l.269-.25h7.585l9.412,16.307Zm-17.746-1.868H419l8.333-14.43L419,553.78h-5.769a40.926,40.926,0,0,0-12.648,25.847Z" transform="translate(-186.51 -218.362)" fill="#fff"/>
        </g>
        <rect id="Rechteck_311" data-name="Rechteck 311" width="95.92" height="63.947" transform="translate(1158.231 365.618)" fill="#72abe3" opacity="0.8"/>
        <rect id="Rechteck_312" data-name="Rechteck 312" width="95.92" height="63.947" transform="translate(1063.111 429.564)" fill="#72abe3" opacity="0.8"/>
        <rect id="Rechteck_313" data-name="Rechteck 313" width="95.92" height="63.947" transform="translate(1158.231 429.564)" fill="#fbfdff" opacity="0.8"/>
        <rect id="Rechteck_314" data-name="Rechteck 314" width="95.92" height="63.947" transform="translate(1063.195 493.512)" fill="#72abe3" opacity="0.8"/>
        <rect id="Rechteck_315" data-name="Rechteck 315" width="95.92" height="63.947" transform="translate(1063.195 493.512)" fill="#72abe3" opacity="0.8"/>
        <rect id="Rechteck_316" data-name="Rechteck 316" width="95.92" height="63.947" transform="translate(1063.195 493.512)" fill="#72abe3" opacity="0.8"/>
        <rect id="Rechteck_317" data-name="Rechteck 317" width="95.92" height="63.947" transform="translate(1063.195 493.512)" fill="#72abe3" opacity="0.8"/>
        <rect id="Rechteck_355" data-name="Rechteck 355" width="95.122" height="63.415" transform="translate(1349.274 302.796)" fill="#72abe3" opacity="0.8"/>
        <path id="Pfad_3302" data-name="Pfad 3302" d="M0,0H95.122V57.554H0Z" transform="translate(1444.396 245.242)" fill="#72abe3" opacity="0.8"/>
      </g>
      <g id="Gruppe_1337" data-name="Gruppe 1337">
        <g id="Gruppe_1336" data-name="Gruppe 1336">
          <g id="Gruppe_1335" data-name="Gruppe 1335">
            <rect id="Rechteck_274-2" data-name="Rechteck 274" width="95.92" height="63.947" transform="translate(1728.959 -0.953)" fill="#8dbae8"/>
            <rect id="Rechteck_280-2" data-name="Rechteck 280" width="95.92" height="63.947" transform="translate(1728.959 59.794)" fill="#1976d2"/>
            <rect id="Rechteck_291-2" data-name="Rechteck 291" width="95.92" height="63.947" transform="translate(1063.111 242.046)" fill="#1976d2" opacity="0.8"/>
            <rect id="Rechteck_292-2" data-name="Rechteck 292" width="95.92" height="63.947" transform="translate(1158.231 242.046)" fill="#1976d2"/>
            <rect id="Rechteck_293-2" data-name="Rechteck 293" width="95.92" height="57.554" transform="translate(1253.354 245.242)" fill="#4f96dc"/>
            <rect id="Rechteck_294-2" data-name="Rechteck 294" width="95.92" height="63.947" transform="translate(1348.476 242.046)" fill="#4f96dc"/>
            <rect id="Rechteck_296-2" data-name="Rechteck 296" width="95.92" height="63.947" transform="translate(1063.111 302.796)" fill="#8dbae8"/>
            <rect id="Rechteck_297-2" data-name="Rechteck 297" width="95.92" height="63.947" transform="translate(1158.231 302.796)" fill="#448fda"/>
            <rect id="Rechteck_298-2" data-name="Rechteck 298" width="95.92" height="63.947" transform="translate(1253.354 302.796)" fill="#8dbae8" opacity="0.8"/>
            <rect id="Rechteck_299-2" data-name="Rechteck 299" width="95.92" height="63.947" transform="translate(1348.476 302.796)" fill="#fbfdff"/>
            <rect id="Rechteck_300-2" data-name="Rechteck 300" width="95.92" height="63.947" transform="translate(1063.111 365.618)" fill="#1976d2"/>
            <rect id="Rechteck_302-2" data-name="Rechteck 302" width="95.92" height="63.947" transform="translate(1253.354 365.618)" fill="#4f96dc"/>
            <rect id="Rechteck_268-2" data-name="Rechteck 268" width="95.92" height="63.947" transform="translate(1063.111 -0.953)" fill="#1976d2"/>
            <rect id="Rechteck_269-2" data-name="Rechteck 269" width="95.92" height="63.947" transform="translate(1158.231 -0.953)" fill="#8dbae8"/>
            <rect id="Rechteck_270-2" data-name="Rechteck 270" width="95.92" height="63.947" transform="translate(1253.354 -0.953)" fill="#1976d2" opacity="0.8"/>
            <rect id="Rechteck_271-2" data-name="Rechteck 271" width="95.92" height="60.747" transform="translate(1348.476 -0.953)" fill="#1976d2"/>
            <rect id="Rechteck_272-2" data-name="Rechteck 272" width="95.92" height="63.947" transform="translate(1443.597 -0.953)" fill="#1976d2" opacity="0.8"/>
            <rect id="Rechteck_273-2" data-name="Rechteck 273" width="95.92" height="60.747" transform="translate(1538.717 -0.953)" fill="#8dbae8"/>
            <rect id="Rechteck_275-2" data-name="Rechteck 275" width="95.92" height="63.947" transform="translate(1063.111 59.794)" fill="#1976d2" opacity="0.8"/>
            <rect id="Rechteck_276-2" data-name="Rechteck 276" width="95.92" height="63.947" transform="translate(1158.231 59.794)" fill="#1976d2"/>
            <rect id="Rechteck_277-2" data-name="Rechteck 277" width="95.92" height="60.747" transform="translate(1348.476 62.994)" fill="#8dbae8" opacity="0.8"/>
            <rect id="Rechteck_278-2" data-name="Rechteck 278" width="95.92" height="63.947" transform="translate(1443.597 59.794)" fill="#1976d2"/>
            <rect id="Rechteck_279-2" data-name="Rechteck 279" width="95.92" height="63.947" transform="translate(1538.717 59.794)" fill="#1976d2" opacity="0.8"/>
            <rect id="Rechteck_281-2" data-name="Rechteck 281" width="95.92" height="63.947" transform="translate(1063.111 120.545)" fill="#8dbae8"/>
            <rect id="Rechteck_282-2" data-name="Rechteck 282" width="95.92" height="63.947" transform="translate(1158.231 120.545)" fill="#1976d2" opacity="0.8"/>
            <rect id="Rechteck_283-2" data-name="Rechteck 283" width="95.92" height="63.947" transform="translate(1253.354 120.545)" fill="#8dbae8"/>
            <rect id="Rechteck_284-2" data-name="Rechteck 284" width="95.92" height="63.947" transform="translate(1348.476 120.545)" fill="#1976d2"/>
            <rect id="Rechteck_285-2" data-name="Rechteck 285" width="95.92" height="63.947" transform="translate(1443.597 120.545)" fill="#1976d2" opacity="0.8"/>
            <rect id="Rechteck_286-2" data-name="Rechteck 286" width="95.92" height="63.947" transform="translate(1538.717 120.545)" fill="#8dbae8"/>
            <rect id="Rechteck_287-2" data-name="Rechteck 287" width="95.92" height="63.947" transform="translate(1633.837 120.545)" fill="#1976d2"/>
            <rect id="Rechteck_288-2" data-name="Rechteck 288" width="95.92" height="63.947" transform="translate(1063.111 181.295)" fill="#1976d2"/>
            <rect id="Rechteck_289-2" data-name="Rechteck 289" width="95.92" height="63.947" transform="translate(1158.231 181.295)" fill="#8dbae8"/>
            <rect id="Rechteck_290-2" data-name="Rechteck 290" width="95.92" height="63.947" transform="translate(1538.717 181.295)" fill="#1976d2" opacity="0.8"/>
            <rect id="Rechteck_303-2" data-name="Rechteck 303" width="95.92" height="63.947" transform="translate(1253.354 59.794)" fill="#1976d2"/>
            <rect id="Rechteck_304-2" data-name="Rechteck 304" width="95.92" height="63.947" transform="translate(1633.837 -0.953)" fill="#1976d2"/>
            <rect id="Rechteck_305-2" data-name="Rechteck 305" width="95.92" height="63.947" transform="translate(1443.597 181.295)" fill="#1976d2"/>
            <rect id="Rechteck_306-2" data-name="Rechteck 306" width="95.92" height="63.947" transform="translate(1348.476 181.295)" fill="#8dbae8"/>
            <rect id="Rechteck_307-2" data-name="Rechteck 307" width="95.92" height="63.947" transform="translate(1253.354 181.295)" fill="#1976d2" opacity="0.8"/>
            <rect id="Rechteck_308-2" data-name="Rechteck 308" width="95.92" height="63.947" transform="translate(1633.837 59.794)" fill="#8dbae8"/>
            <rect id="Rechteck_309-2" data-name="Rechteck 309" width="95.92" height="63.947" transform="translate(1824.079 -0.953)" fill="#1976d2" opacity="0.8"/>
            <g id="undraw_junior_soccer_6sop_1_2" data-name="undraw_junior_soccer_6sop (1)" transform="translate(1063.195 609.269)">
              <path id="Pfad_3227-2" data-name="Pfad 3227" d="M584.757,699.768c2.913-3.679,6.754,3.639,10.6.934H574.061C578.4,703.109,581.778,695.836,584.757,699.768Z" transform="translate(-198.087 -228.044)" fill="none"/>
              <path id="Pfad_3228-2" data-name="Pfad 3228" d="M660.211,700.852H656.54c.789.554,1.58,1.105,2.333,1.7C659.3,701.975,659.761,701.418,660.211,700.852Z" transform="translate(-203.531 -228.194)" fill="none"/>
              <path id="Pfad_3229-2" data-name="Pfad 3229" d="M554.606,696.125a35.143,35.143,0,0,0-17.086,4.415h34.128A34.986,34.986,0,0,0,554.606,696.125Z" transform="translate(-195.674 -227.882)" fill="#e6e6e6"/>
              <path id="Pfad_3230-2" data-name="Pfad 3230" d="M624.748,691.4a48.284,48.284,0,0,0-27.889,8.83H652.6a48.27,48.27,0,0,0-27.852-8.83Z" transform="translate(-199.592 -227.57)" fill="#e6e6e6"/>
              <path id="Pfad_3231-2" data-name="Pfad 3231" d="M1004.074,625.522c-2.494-45.216-38.822-82.082-84-85.172a90.525,90.525,0,0,0-93.569,66.09c-1.1-.039-2.192-.084-3.3-.084a90.523,90.523,0,0,0-86.834,64.99,63.963,63.963,0,0,0-75.9,18.895H942.788c34.685,0,62.768-28.728,61.353-63.384Q1004.112,626.191,1004.074,625.522Z" transform="translate(-203.791 -217.584)" fill="#e6e6e6"/>
              <rect id="Rechteck_262-2" data-name="Rechteck 262" width="792.954" height="1.868" transform="translate(0 471.724)" fill="#3f3d56"/>
              <path id="Pfad_3232-2" data-name="Pfad 3232" d="M452.663,374.786s-35.991-11.211-30.466,7.234,35.84,9.128,35.84,9.128Z" transform="translate(-188.023 -206.446)" fill="#fdab27" opacity="0.39"/>
              <path id="Pfad_3233-2" data-name="Pfad 3233" d="M592.165,300.128s-18.445-25.205-36.365.961c-17.955,26.218-34.648,47.741-34.648,47.741l-44.594,14.54-25.8,2.289,7.107,22.937,75.012-10.882S616.388,328.107,592.165,300.128Z" transform="translate(-189.947 -201.02)" fill="#2f2e41"/>
              <path id="Pfad_3234-2" data-name="Pfad 3234" d="M512.158,450.352s-28.02,19.614-26.152,37.36,14.01,66.313,14.01,66.313l25.218-3.736s2.8-37.359-6.538-51.369L563.528,473.7Z" transform="translate(-192.268 -211.658)" fill="#fdab27" opacity="0.39"/>
              <path id="Pfad_3235-2" data-name="Pfad 3235" d="M580.487,499.852s-1.868,34.557,2.8,48.567,9.34,66.313,9.34,66.313H618.78s12.142-45.765-2.8-66.313c0,0-4.67-27.086,8.406-40.161Z" transform="translate(-198.486 -214.925)" fill="#fdab27" opacity="0.39"/>
              <path id="Pfad_3236-2" data-name="Pfad 3236" d="M569.722,396.824s-60.709,38.294-60.709,50.435l48.567,40.161,16.812-18.68-1.868,28.02,52.3,10.274s18.68-70.983,17.746-73.785-3.736-43.9-3.736-43.9Z" transform="translate(-193.792 -207.631)" fill="#2f2e41"/>
              <path id="Pfad_3237-2" data-name="Pfad 3237" d="M526.1,552.352l-27.086,5.6,4.812,19.784a70.644,70.644,0,0,1,.792,29.717h0s28.019,7.472,28.019,3.736-6.538-18.68-4.67-28.954S526.1,552.352,526.1,552.352Z" transform="translate(-193.132 -218.391)" fill="#1976d2"/>
              <path id="Pfad_3238-2" data-name="Pfad 3238" d="M538.035,626.024c-.934-3.736-8.694-20.675-9.017-17.809s-15.267,7.535-20.871,1.932c0,0-7.472-6.538-10.274,0s-8.406,17.746-8.406,17.746-25.218,12.142-21.482,18.68c.756,1.322,2.849,1.88,5.707,1.929a1.53,1.53,0,0,0-.1.542v.662a1.537,1.537,0,0,0,1.537,1.537h.662a1.537,1.537,0,0,0,1.537-1.537v-.662a1.517,1.517,0,0,0-.168-.685c.764-.067,1.556-.155,2.371-.263a1.522,1.522,0,0,0-.335.948v.662a1.537,1.537,0,0,0,1.537,1.537h.662a1.537,1.537,0,0,0,1.537-1.537v-.662a1.53,1.53,0,0,0-.795-1.338c2.15-.359,4.393-.815,6.625-1.321a1.519,1.519,0,0,0-.226.791v.662a1.537,1.537,0,0,0,1.537,1.537h.662a1.537,1.537,0,0,0,1.537-1.537v-.662a1.536,1.536,0,0,0-.914-1.4c1.673-.408,3.313-.833,4.874-1.255a1.519,1.519,0,0,0-.224.789v.662a1.537,1.537,0,0,0,1.537,1.537h.662a1.537,1.537,0,0,0,1.537-1.537v-.662a1.532,1.532,0,0,0-1.081-1.46c5.485-1.545,9.487-2.879,9.487-2.879s4.647-1.691,10.274-3.976v.57a1.537,1.537,0,0,0,1.537,1.537h.662a1.537,1.537,0,0,0,1.537-1.537V636.9a1.527,1.527,0,0,0-.595-1.206c1.13-.475,2.269-.963,3.4-1.46v.526A1.537,1.537,0,0,0,526.5,636.3h.662a1.537,1.537,0,0,0,1.537-1.537V634.1a1.533,1.533,0,0,0-.658-1.258c1.219-.568,2.393-1.136,3.475-1.693,0,.05-.015.1-.015.149v.662a1.537,1.537,0,0,0,1.537,1.537h.662a1.537,1.537,0,0,0,1.537-1.537V631.3a1.538,1.538,0,0,0-1.23-1.506C536.615,628.274,538.261,626.929,538.035,626.024Z" transform="translate(-191.059 -222.014)" fill="#2f2e41"/>
              <path id="Pfad_3239-2" data-name="Pfad 3239" d="M621.136,618.22l-29.589-1.868s1.793,30.822-1.793,41.1-1.793,14.01-1.793,14.01l26,1.868Z" transform="translate(-198.975 -222.616)" fill="#1976d2"/>
              <path id="Pfad_3240-2" data-name="Pfad 3240" d="M618.748,689.446c-.134-3.848-4.192-22.033-5.105-19.3s-16.5,4.186-20.815-2.463c0,0-5.944-7.952-10.048-2.142s-11.921,15.6-11.921,15.6-27.195,6.617-24.9,13.79c.463,1.451,2.394,2.433,5.18,3.077a1.53,1.53,0,0,0-.214.508l-.138.647a1.537,1.537,0,0,0,1.183,1.824l.647.138a1.537,1.537,0,0,0,1.824-1.183l.138-.647a1.517,1.517,0,0,0-.021-.7c.761.094,1.554.172,2.374.237a1.523,1.523,0,0,0-.525.857l-.138.647a1.537,1.537,0,0,0,1.183,1.824l.647.138a1.537,1.537,0,0,0,1.824-1.183l.138-.648a1.529,1.529,0,0,0-.5-1.474c2.177.1,4.467.119,6.754.089a1.527,1.527,0,0,0-.386.727l-.138.647a1.537,1.537,0,0,0,1.183,1.824l.647.138a1.538,1.538,0,0,0,1.824-1.183l.138-.647a1.536,1.536,0,0,0-.6-1.562c1.722-.05,3.414-.124,5.029-.211a1.522,1.522,0,0,0-.384.725l-.138.647a1.537,1.537,0,0,0,1.183,1.824l.647.138a1.537,1.537,0,0,0,1.824-1.183l.138-.647a1.532,1.532,0,0,0-.753-1.654c5.687-.368,9.879-.837,9.879-.837s4.9-.685,10.877-1.746l-.119.558a1.537,1.537,0,0,0,1.183,1.824l.647.138a1.537,1.537,0,0,0,1.824-1.183l.138-.647a1.528,1.528,0,0,0-.33-1.3c1.2-.229,2.42-.469,3.626-.719l-.109.514a1.537,1.537,0,0,0,1.183,1.824l.647.138a1.537,1.537,0,0,0,1.824-1.183l.138-.647a1.533,1.533,0,0,0-.381-1.368c1.311-.3,2.577-.612,3.751-.931-.015.048-.035.093-.046.143l-.138.647a1.537,1.537,0,0,0,1.183,1.824l.647.138a1.537,1.537,0,0,0,1.824-1.183l.138-.647a1.537,1.537,0,0,0-.889-1.729C616.89,691.352,618.781,690.379,618.748,689.446Z" transform="translate(-196.222 -225.723)" fill="#2f2e41"/>
              <ellipse id="Ellipse_21-2" data-name="Ellipse 21" cx="27.086" cy="27.086" rx="27.086" ry="27.086" transform="translate(348.844 13.603)" fill="#fdab27" opacity="0.39"/>
              <path id="Pfad_3241-2" data-name="Pfad 3241" d="M598.649,235.352s14.944,18.68,22.416,17.746l-32.689,25.218s-3.736-15.878-8.406-17.746S598.649,235.352,598.649,235.352Z" transform="translate(-198.436 -197.465)" fill="#fdca78"/>
              <path id="Pfad_3242-2" data-name="Pfad 3242" d="M654.821,374.955s0-103.063-17.291-111.94-28.708-13.937-28.708-13.937h0a24.244,24.244,0,0,1-9.322,17.342c-5.729,4.423-11.437,8.091-14.625,8.1l-.1-.437-.389-1.11-9.418,14.653s-8.406,1.868-11.208,7.472c-1.516,3.032,5.632,33.552,1.4,61.176-3.59,23.437-18.718,44.594-19.147,47.166-.725,4.348,17.662-7.044,25.942-12.37.122.137.21.228.21.228s-4.67,1.868,4.67-.934c5.292-1.588,12.681-1.676,18.093-1.454-.006,1.623.032,2.912.12,3.789.934,9.34,47.633,22.416,54.171,19.614S654.821,374.955,654.821,374.955Z" transform="translate(-196.234 -198.371)" fill="#2f2e41"/>
              <path id="Pfad_3243-2" data-name="Pfad 3243" d="M626.4,421.852s-28.02,25.218-9.34,29.888,26.152-26.152,26.152-26.152Z" transform="translate(-200.501 -209.776)" fill="#fdca78"/>
              <path id="Pfad_3244-2" data-name="Pfad 3244" d="M592.513,491.319s13.076-12.142,20.548-5.6S625.2,496.923,625.2,496.923,603.721,483.847,592.513,491.319Z" transform="translate(-199.304 -213.864)" fill="#1976d2"/>
              <path id="Pfad_3245-2" data-name="Pfad 3245" d="M596.15,647.1s7.37-6.843,11.582-3.158,6.844,6.317,6.844,6.317S602.467,642.888,596.15,647.1Z" transform="translate(-199.545 -224.365)" fill="#2f2e41"/>
              <path id="Pfad_3246-2" data-name="Pfad 3246" d="M507.746,578.767s5.059-8.692,10.161-6.392,8.386,4.052,8.386,4.052S512.565,572.9,507.746,578.767Z" transform="translate(-193.709 -219.687)" fill="#2f2e41"/>
              <path id="Pfad_3247-2" data-name="Pfad 3247" d="M652.6,277.029c-9.259-18.611-37.429-8.46-32.851,11.816q.1.453.214.916a184.33,184.33,0,0,0,23.349,54.171L633.038,389.7l-11.208,23.35,23.35,5.6L674.134,348.6S666.147,304.262,652.6,277.029Z" transform="translate(-201.069 -199.57)" fill="#2f2e41"/>
              <path id="Pfad_3248-2" data-name="Pfad 3248" d="M467.746,156.065,450,223.312l14.944-31.756Z" transform="translate(-29.706 -10.303)" opacity="0.2"/>
              <path id="Pfad_3249-2" data-name="Pfad 3249" d="M588.623,203.9s-14.972-15.762-30.042-5.836-22.219,19.569-20.741,26.284S543.69,240.4,543.69,240.4s-2.718-13.91,9.761-14.939,29.718-9.287,29.718-9.287l11.662,24.9s1.649-5.771,6.219-4.116S602.078,205.75,588.623,203.9Z" transform="translate(-195.683 -194.787)" fill="#2f2e41"/>
              <path id="Pfad_3250-2" data-name="Pfad 3250" d="M483.572,582.881a42.874,42.874,0,0,1-.589,7.061v.01a42.04,42.04,0,0,1-58.131,31.5h-.009a41.034,41.034,0,0,1-5.016-2.587,42.093,42.093,0,0,1-19.5-27.693,42.551,42.551,0,0,1-.813-8.294c0-1.27.056-2.531.168-3.773V579.1a42.028,42.028,0,0,1,83.881,3.2v.009C483.572,582.508,483.572,582.685,483.572,582.881Z" transform="translate(-186.564 -217.632)" fill="#1976d2"/>
              <path id="Pfad_3251-2" data-name="Pfad 3251" d="M453.594,568.778H434.771l-9.412-16.3,6.384-11.066.373-.1a43.109,43.109,0,0,1,24.567.687l.338.112,5.986,10.367Zm-17.746-1.868h16.668l8.333-14.43-5.089-8.815a41.429,41.429,0,0,0-22.788-.646l-5.457,9.46Z" transform="translate(-188.27 -217.566)" fill="#fff"/>
              <path id="Pfad_3252-2" data-name="Pfad 3252" d="M452.594,604.518H433.771l-9.412-16.3,9.412-16.3h18.824l9.412,16.3Zm-17.746-1.868h16.668l8.333-14.434-8.333-14.435H434.849l-8.333,14.434Z" transform="translate(-188.204 -219.682)" fill="#fff"/>
              <path id="Pfad_3253-2" data-name="Pfad 3253" d="M443.239,630.4a42.57,42.57,0,0,1-17.063-3.533l-.96-.417,9.544-16.542h18.824l9.142,15.836-.908.436a42.559,42.559,0,0,1-18.58,4.22Zm-15.352-4.841a41.14,41.14,0,0,0,32.209-.637l-7.589-13.146H435.84Z" transform="translate(-188.261 -222.19)" fill="#fff"/>
              <path id="Pfad_3254-2" data-name="Pfad 3254" d="M486.594,586.517H467.771l-9.412-16.3,9.412-16.307h8.571l.276.291a42.758,42.758,0,0,1,11.763,28.95v.271Zm-17.746-1.868h16.668l.993-1.719a40.887,40.887,0,0,0-10.973-27.15h-6.687l-8.334,14.44Z" transform="translate(-190.449 -218.494)" fill="#fff"/>
              <path id="Pfad_3255-2" data-name="Pfad 3255" d="M467.511,623.061l-9.153-15.842,9.412-16.307h18.823l1.209,2.083-.013.418a43.054,43.054,0,0,1-19.456,29.13Zm-7-15.842,7.635,13.215a41.18,41.18,0,0,0,17.741-27.01l-.374-.644H468.85Z" transform="translate(-190.449 -220.936)" fill="#fff"/>
              <path id="Pfad_3256-2" data-name="Pfad 3256" d="M420.148,623.464l-.815-.493A43.07,43.07,0,0,1,399.4,594.663l-.069-.346,1.968-3.406h18.824l9.412,16.308ZM401.3,594.639a41.2,41.2,0,0,0,18.189,26.232l7.887-13.652-8.334-14.44H402.375Z" transform="translate(-186.552 -220.936)" fill="#fff"/>
              <path id="Pfad_3257-2" data-name="Pfad 3257" d="M420.078,584.517H401.255l-2.562-4.428v-.251a42.834,42.834,0,0,1,13.533-27.677l.269-.25h7.585l9.412,16.307Zm-17.746-1.868H419l8.333-14.43L419,553.78h-5.769a40.926,40.926,0,0,0-12.648,25.847Z" transform="translate(-186.51 -218.362)" fill="#fff"/>
            </g>
            <rect id="Rechteck_311-2" data-name="Rechteck 311" width="95.92" height="63.947" transform="translate(1158.231 365.618)" fill="#72abe3" opacity="0.8"/>
            <rect id="Rechteck_312-2" data-name="Rechteck 312" width="95.92" height="63.947" transform="translate(1063.111 429.564)" fill="#72abe3" opacity="0.8"/>
            <rect id="Rechteck_313-2" data-name="Rechteck 313" width="95.92" height="63.947" transform="translate(1158.231 429.564)" fill="#fbfdff" opacity="0.8"/>
            <rect id="Rechteck_314-2" data-name="Rechteck 314" width="95.92" height="63.947" transform="translate(1063.195 493.512)" fill="#72abe3" opacity="0.8"/>
            <rect id="Rechteck_315-2" data-name="Rechteck 315" width="95.92" height="63.947" transform="translate(1063.195 493.512)" fill="#72abe3" opacity="0.8"/>
            <rect id="Rechteck_316-2" data-name="Rechteck 316" width="95.92" height="63.947" transform="translate(1063.195 493.512)" fill="#72abe3" opacity="0.8"/>
            <rect id="Rechteck_317-2" data-name="Rechteck 317" width="95.92" height="63.947" transform="translate(1063.195 493.512)" fill="#1976d2" opacity="0.8"/>
            <rect id="Rechteck_355-2" data-name="Rechteck 355" width="95.122" height="63.415" transform="translate(1348.274 302.796)" fill="#72abe3" opacity="0.8"/>
            <path id="Pfad_3302-2" data-name="Pfad 3302" d="M0,0H95.122V57.554H0Z" transform="translate(1444.396 245.242)" fill="#72abe3" opacity="0.8"/>
            <rect id="Rechteck_356" data-name="Rechteck 356" width="95.92" height="63.947" transform="translate(1158.116 429.565)" fill="#1976d2"/>
          </g>
        </g>
      </g>
    </g>
  </g>
</svg>
